<?xml version="1.0" encoding="UTF-8" standalone="no"?>
<svg
   height="293.97446"
   version="1.1"
   width="351.2197"
   id="svg12"
   xml:space="preserve"
   xmlns="http://www.w3.org/2000/svg"
   xmlns:svg="http://www.w3.org/2000/svg"><defs
     id="defs1" /><path
     style="fill:#fb4600;fill-opacity:0.823529;stroke-width:5.32053"
     d="m 82.764214,293.48337 -51.25413,0.4911 -1.08312,-5.11261 c -0.59572,-2.81196 -2.58633,-10.10371 -4.42357,-16.20385 -1.83726,-6.10015 -4.80123,-16.49813 -6.58659,-23.1066 -1.78538,-6.60848 -4.30132,-15.34274 -5.59096,-19.40958 -1.28966,-4.06675 -3.76504,-12.38513 -5.5008499,-18.48528 -1.7358,-6.10015 -4.31903,-13.4461 -5.74048,-16.3244 -1.42147,-2.8783 -2.584500027734,-6.39443 -2.584500027734,-7.81363 0,-1.41919 2.224660027734,-4.03802 4.943670027734,-5.8196 2.71902,-1.78158 8.7498499,-7.37021 13.4018399,-12.41919 4.65198,-5.04891 17.19245,-18.24315 27.86771,-29.32046 10.67525,-11.07724 19.70702,-21.52072 20.0706,-23.20765 0.36356,-1.68692 1.53592,-4.14388 2.60522,-5.45996 1.16863,-1.4383 3.87689,-1.96834 6.78924,-1.32864 2.72612,0.59871 11.69234,-0.87874 20.50142,-3.37821 8.610956,-2.44338 21.479166,-5.95184 28.596036,-7.796661 7.11683,-1.844858 13.58763,-4.416009 14.37957,-5.713734 0.84048,-1.377224 4.78463,-2.292281 9.47461,-2.19812 4.4191,0.08873 12.29749,-0.93126 17.50754,-2.266547 5.34617,-1.370193 9.47279,-3.483516 9.47279,-4.851102 0,-1.332835 1.55032,-2.423357 3.44513,-2.423357 2.09787,0 11.54577,-9.21679 24.15977,-23.568757 L 223.92983,34.197779 222.83934,17.098895 C 222.23962,7.6945009 222.24956,1.7712403e-7 222.86064,1.7712403e-7 c 0.61192,0 4.99587,3.11939802287597 9.74209,6.93198372287597 4.7462,3.8125951 8.88998,7.5055271 9.20836,8.2065261 0.31838,0.701001 5.72535,2.897743 12.01546,4.881662 6.2901,1.983915 16.42757,4.985314 22.5277,6.669775 6.10016,1.684456 14.00263,3.832723 17.56106,4.773897 3.55839,0.941174 11.25292,2.981153 17.09889,4.533264 5.84597,1.552111 14.99618,3.986041 20.33381,5.408785 5.33763,1.422716 11.99232,3.102226 14.78824,3.732254 l 5.08344,1.145527 v 23.006341 c 0,21.657576 -0.23321,23.131209 -3.97883,25.135771 -2.18836,1.171157 -13.21021,5.375753 -24.49302,9.343504 -12.73858,4.47971 -21.76373,8.77699 -23.81087,11.33744 -2.93964,3.67676 -3.23997,7.77753 -2.77281,37.86007 0.30046,19.3471 -0.19146,33.73625 -1.15329,33.73566 -0.92248,-5.9e-4 -11.52841,9.72881 -23.56876,21.62083 l -21.89152,21.62189 v 29.28465 29.28464 l -15.96673,-0.53412 -15.96649,-0.53409 -8.56253,-25.73737 c -4.70942,-14.15555 -9.50078,-26.05013 -10.64747,-26.43235 -1.1467,-0.38202 -15.48142,6.90258 -31.85497,16.1884 -21.52007,12.2046 -30.0181,17.99282 -30.6651,20.88675 -0.49226,2.20188 -1.11438,7.74668 -1.38251,12.32179 l -0.4875,8.31838 z m 2.73028,-6.96118 h 41.129776 v -7.39409 c 0,-4.06674 -0.55156,-7.39409 -1.22565,-7.39409 -0.67412,0 -1.26562,-5.19904 -1.31447,-11.55333 -0.0489,-6.35431 -1.28772,-17.3762 -2.753,-24.49304 -1.46531,-7.11679 -3.23944,-17.30684 -3.94249,-22.64445 -0.73878,-5.60911 -2.21491,-9.70482 -3.49772,-9.70482 -1.22072,0 -5.25518,3.95124 -8.9655,8.78055 -3.71029,4.82928 -9.080226,11.31479 -11.933146,14.41232 -2.85293,3.09744 -10.91996,12.66359 -17.92669,21.25808 -7.00675,8.59446 -13.66145,16.45811 -14.78824,17.4748 -1.12677,1.01669 -5.16808,5.73181 -8.98066,10.47805 -3.81259,4.74618 -6.93199,9.11334 -6.93199,9.70476 0,0.59145 18.50839,1.07526 41.12978,1.07526 z m -48.06178,-5.56138 c 0.76254,0.0108 1.38639,-0.85575 1.38639,-1.92098 0,-1.06521 1.90719,-3.76869 4.23819,-6.00774 2.33097,-2.23896 7.48739,-8.2301 11.45874,-13.31357 3.97131,-5.08344 8.12397,-10.07447 9.22815,-11.09117 1.10415,-1.01666 5.8753,-6.83955 10.60253,-12.93971 4.72723,-6.10013 11.5609,-14.25684 15.1859,-18.12599 3.625,-3.86919 6.59091,-7.35319 6.59091,-7.74216 0,-0.38893 2.52051,-3.46213 5.601116,-6.82911 l 5.6011,-6.1218 -9.760296,-1.16969 c -5.36816,-0.64335 -27.05555,-1.66671 -48.1942,-2.27416 l -38.43387,-1.10442 1.24448,6.89545 c 0.68445,3.79247 1.85514,8.1432 2.60149,9.66821 0.74633,1.52508 4.45757,13.58673 8.24715,26.80367 3.78959,13.21701 8.26842,28.80687 9.95299,34.64414 1.68456,5.83731 3.68673,10.62036 4.44923,10.62903 z m 195.547006,0.0159 h 9.17762 v -27.39008 -27.39012 l 20.33381,-19.91886 c 11.1836,-10.95539 20.33381,-20.55402 20.33381,-21.33028 0,-0.77632 -5.61489,-2.8636 -12.47756,-4.6385 -6.86266,-1.77487 -15.38901,-3.89706 -18.94741,-4.71601 -3.55844,-0.81892 -13.11278,-3.61567 -21.23188,-6.21502 -8.1191,-2.59929 -15.32615,-4.13192 -16.01566,-3.40582 -0.68952,0.72608 -2.18103,9.07203 -3.31443,18.54648 -1.13343,9.47448 -2.12922,24.49721 -2.21284,33.38382 -0.096,10.20692 1.01737,20.20159 3.02334,27.13841 1.74649,6.0395 4.33442,13.71256 5.75096,17.05128 1.41652,3.33876 2.5755,7.34469 2.5755,8.90207 0,1.55737 0.86112,4.44056 1.91358,6.40713 1.4974,2.79795 3.90941,3.57552 11.09116,3.57552 z m -83.76018,-27.92254 c 7.90643,-4.16366 16.87082,-9.12183 19.92089,-11.01801 3.05006,-1.89617 10.30584,-6.17996 16.12397,-9.5194 6.03598,-3.4645 11.38938,-8.05625 12.46696,-10.6931 1.03867,-2.54176 2.73886,-14.51324 3.77818,-26.60331 1.03929,-12.09003 2.37881,-23.93099 2.97672,-26.31321 l 1.08707,-4.33124 -12.67087,4.71453 c -6.96899,2.59299 -18.90964,6.68328 -26.53483,9.08942 -7.62518,2.40617 -18.43908,6.16491 -24.03087,8.35277 -5.5918,2.18785 -11.45589,4.37703 -13.03132,4.86494 -1.5754,0.48789 -3.75621,2.31501 -4.84617,4.06035 -1.36255,2.18181 -1.4226,6.33226 -0.19198,13.28316 0.9843,5.56037 2.95711,15.2718 4.38403,21.58089 1.42695,6.30908 2.59441,13.53349 2.59441,16.05427 0,2.52076 0.80971,6.71285 1.79934,9.31577 l 1.79929,4.73262 z M 99.358444,186.29623 c 4.530116,0.23347 7.856246,-0.41978 7.856246,-1.5431 0,-1.07162 -2.62241,-6.68656 -5.8276,-12.47757 -3.205176,-5.79103 -8.820086,-15.22604 -12.477566,-20.96678 -3.65747,-5.7407 -9.02339,-14.44311 -11.92426,-19.33872 l -5.27431,-8.90108 -13.21097,14.05691 c -7.26608,7.73127 -20.01914,21.42472 -28.34021,30.42989 l -15.12919,16.37303 38.23581,0.981 c 21.02969,0.53961 41.7711,1.16349 46.09205,1.38642 z m 27.987796,-3.18344 c 1.88123,-1.00679 6.64758,-2.61862 10.59187,-3.58171 3.94428,-0.96321 11.74654,-3.52738 17.33835,-5.6982 5.59181,-2.17083 13.49428,-5.2096 17.56102,-6.75283 4.06678,-1.54315 9.05781,-3.25021 11.09117,-3.79336 2.03338,-0.54319 7.16689,-2.54115 11.40779,-4.43993 4.24092,-1.89875 8.39744,-4.51864 9.23672,-5.8219 0.83929,-1.30325 2.53319,-9.02431 3.76424,-17.15781 1.23107,-8.13356 2.27353,-17.10259 2.3166,-19.93128 0.049,-3.20838 -1.13856,-5.64687 -3.1566,-6.48239 -1.7792,-0.73669 -7.94918,-4.43468 -13.71105,-8.21779 -5.76187,-3.783182 -12.83251,-7.000983 -15.7125,-7.150822 -2.88001,-0.149432 -10.12192,1.06071 -16.09316,2.689981 -5.97125,1.62926 -11.93649,4.436841 -13.25611,6.239051 -1.31962,1.80223 -3.33816,6.60412 -4.48565,10.67086 -1.14751,4.06674 -3.16957,11.13745 -4.49346,15.7125 -1.32391,4.57512 -3.8884,13.30943 -5.69886,19.40959 -1.81046,6.10017 -4.3661,14.00257 -5.6792,17.561 -1.31312,3.55843 -2.84964,9.19365 -3.41452,12.52273 -0.92455,5.44881 -0.68572,5.8702 2.39335,4.22231 z m -10.88892,-2.88107 c 1.01671,-0.62834 1.84856,-2.85335 1.84856,-4.94442 0,-2.09114 1.1861,-7.65694 2.63582,-12.36847 1.44968,-4.71161 3.94739,-13.14162 5.55049,-18.73339 1.60308,-5.59185 4.99205,-16.71984 7.5311,-24.72899 2.53902,-8.00913 4.61642,-14.9688 4.61642,-15.46596 0,-0.49693 -1.45574,-0.48523 -3.23493,0.0266 -1.77923,0.51187 -11.13738,3.02092 -20.79597,5.57617 -9.65857,2.55522 -20.472456,5.15732 -24.030886,5.78237 -3.5584,0.62512 -7.55776,1.82698 -8.88745,2.67092 -1.91062,1.21262 -1.54026,3.04831 1.76598,8.75328 2.30101,3.97047 4.73759,7.63488 5.41471,8.1432 0.6771,0.50811 3.46235,5.0835 6.18945,10.16697 2.72708,5.08343 5.953506,10.90627 7.169826,12.93968 1.21631,2.03335 4.49902,7.27406 7.29494,11.64596 2.79587,4.37193 5.08343,8.78814 5.08343,9.81389 0,1.02575 0.83185,1.35081 1.84851,0.72247 z m 170.37262,-4.45982 c 0.67771,-0.59718 1.50954,-14.39519 1.84853,-30.66224 l 0.61635,-29.57648 -32.15419,-0.50705 c -27.32154,-0.43095 -32.64388,-0.0639 -35.41219,2.44155 -2.13386,1.93115 -4.04821,8.25992 -5.54824,18.34254 -1.25967,8.46677 -1.84079,16.56549 -1.29142,17.99713 0.54938,1.43166 6.28569,4.04633 12.74732,5.81035 6.46164,1.76406 20.06681,5.70849 30.23372,8.76547 10.1669,3.05694 20.56488,6.21427 23.10662,7.01624 2.54173,0.80198 5.17579,0.96955 5.8535,0.37245 z m -29.88439,-69.51175 c 18.8088,-0.33146 36.2774,-0.94407 38.81913,-1.36113 2.54174,-0.41713 7.11683,-1.42915 10.16691,-2.24893 3.05008,-0.81987 6.37743,-2.10455 7.39412,-2.854961 1.01669,-0.750401 8.0873,-3.526722 15.7125,-6.169575 l 13.86395,-4.805147 -11.5533,-0.04245 c -11.07906,-0.04269 -11.55329,-0.235078 -11.55329,-4.666728 0,-4.489266 0.36972,-4.62131 12.93969,-4.62131 h 12.93972 V 65.625927 c 0,-11.692131 -0.48131,-13.863952 -3.07247,-13.863952 -1.68986,0 -7.30475,-1.193128 -12.47756,-2.65137 -5.17282,-1.458301 -14.81207,-4.037129 -21.42058,-5.730757 -6.60848,-1.693629 -15.34277,-4.138942 -19.40955,-5.433967 -4.06677,-1.295051 -12.80107,-3.789505 -19.40954,-5.543204 -6.60851,-1.753699 -16.57521,-4.815393 -22.14823,-6.803739 -5.57303,-1.988353 -11.60387,-4.946489 -13.40185,-6.573636 -3.09148,-2.797751 -3.26905,-2.362774 -3.26905,8.007582 0,9.635336 -0.61897,11.520689 -5.10083,15.536858 -2.80544,2.513972 -8.00444,8.314101 -11.5533,12.889219 -3.54884,4.57512 -8.14347,9.982065 -10.21027,12.015459 -2.0668,2.033358 -6.81036,7.335914 -10.54123,11.783396 l -6.7834,8.086351 14.8027,8.896688 c 8.14151,4.893185 16.21241,9.285555 17.93532,9.760825 1.72298,0.47513 18.52165,0.59293 37.33041,0.26114 z m 25.90236,-52.652608 c -0.75508,0 -3.4879,-1.663687 -6.07292,-3.697072 -2.60213,-2.046814 -7.49909,-3.697047 -10.97077,-3.697047 -3.44889,0 -7.30355,1.032834 -8.56593,2.295205 -1.82793,1.827915 -2.64976,1.733835 -4.03672,-0.462131 -0.95782,-1.51653 -1.47872,-3.586267 -1.15751,-4.599397 0.32119,-1.01313 4.25886,-3.130679 8.75043,-4.705683 6.06613,-2.12712 9.11737,-2.358253 11.86357,-0.898734 2.03338,1.080671 6.19256,3.570339 9.24264,5.532593 3.05008,1.962255 5.87209,3.79937 6.27115,4.082515 0.39903,0.283171 -0.32668,1.782656 -1.61274,3.332268 -1.28607,1.54961 -2.95611,2.817483 -3.7112,2.817483 z m 61.90278,35.122065 c 0.50834,0 0.92429,-0.41608 0.92429,-0.9243 0,-0.508112 -0.41592,-0.924277 -0.92429,-0.924277 -0.50832,0 -0.92426,0.416069 -0.92426,0.924277 0,0.508124 0.41591,0.9243 0.92426,0.9243 z"
     id="path14" /></svg>
